<svg version="1.1" id="Layer_1" xmlns="http://www.w3.org/2000/svg" xmlns:xlink="http://www.w3.org/1999/xlink" x="0px" y="0px"
	 width="100%" viewBox="0 0 460 332" enable-background="new 0 0 460 332" xml:space="preserve">
<path fill="#FEFEFE" opacity="1.000000" stroke="none" 
	d="
M296.000000,333.000000 
	C197.364319,333.000000 99.228630,333.000000 1.046473,333.000000 
	C1.046473,222.399261 1.046473,111.798492 1.046473,1.098864 
	C154.218979,1.098864 307.438049,1.098864 460.828552,1.098864 
	C460.828552,111.666451 460.828552,222.333206 460.828552,333.000000 
	C406.131897,333.000000 351.315948,333.000000 296.000000,333.000000 
M39.802067,248.070221 
	C42.973881,249.481873 45.136742,248.712021 46.052490,245.198425 
	C46.382828,243.930984 46.774460,242.679443 47.101280,241.411148 
	C48.539902,235.828186 47.284931,234.140030 41.593658,234.113220 
	C34.774319,234.081100 27.953913,234.044998 21.135618,234.135284 
	C18.372648,234.171875 15.452304,234.106812 12.961868,235.042084 
	C12.300826,235.290329 13.613791,239.312820 12.915270,241.191467 
	C9.237574,251.082489 9.700254,262.431732 2.440989,271.082672 
	C1.853706,271.782532 2.069088,273.155914 1.848071,274.642975 
	C12.103205,274.642975 21.890558,274.641327 31.677912,274.643585 
	C37.769615,274.644989 39.553879,272.656921 40.986214,265.070404 
	C42.053631,259.416718 37.188419,261.276520 34.921284,260.293121 
	C35.960033,255.964447 36.916649,251.978058 38.475395,247.988113 
	C38.676006,247.981750 38.876621,247.975372 39.802067,248.070221 
M262.474457,77.062462 
	C264.879395,75.114998 267.284363,73.167534 269.723511,71.192368 
	C269.528534,70.470894 269.292328,69.512901 269.010864,68.568390 
	C265.046021,55.262856 259.902222,42.595215 248.779221,33.468430 
	C246.866623,31.899078 244.249222,30.315599 241.929291,30.273102 
	C233.684235,30.122061 226.867111,27.162996 221.001617,21.546736 
	C219.339478,19.955235 217.694839,18.052586 215.661484,17.188601 
	C201.107895,11.004662 185.868332,8.378722 170.280670,11.351665 
	C148.490738,15.507524 134.040833,29.454365 123.897415,48.457947 
	C123.305984,49.565998 123.316620,50.978474 122.880394,52.189236 
	C120.904282,57.674072 119.752495,63.709202 116.663528,68.485275 
	C110.842476,77.485626 101.322807,82.215736 92.006187,87.019073 
	C84.562019,90.857033 77.004677,94.682686 70.218079,99.523857 
	C64.700912,103.459488 65.115234,108.576782 70.735893,112.704552 
	C75.296738,116.053993 79.838860,121.250023 81.396034,126.512741 
	C85.402214,140.052261 98.384514,147.268860 113.043877,144.894989 
	C130.100189,142.132965 147.070312,138.837662 164.129761,136.096985 
	C166.928391,135.647385 170.384552,136.128296 172.860306,137.448135 
	C179.248901,140.853928 181.804550,147.398300 182.743179,153.936752 
	C184.636703,167.127014 185.584839,180.452469 186.947250,193.719681 
	C187.872238,202.727173 188.791534,211.736053 189.868942,220.725693 
	C189.962784,221.508560 191.219177,222.152100 192.487122,222.974823 
	C192.669617,222.930710 192.852127,222.886581 193.956985,222.990219 
	C230.291260,222.940201 266.625519,222.890182 303.717651,223.002960 
	C303.975342,222.984116 304.233032,222.965286 305.229340,223.061386 
	C305.611786,222.000183 306.396942,220.904938 306.310547,219.883408 
	C305.798096,213.824570 304.305145,207.743912 304.604980,201.743698 
	C305.166992,190.496323 317.516846,176.856705 329.025635,175.381134 
	C336.689880,174.398483 344.726379,174.937271 352.429230,176.002838 
	C361.220520,177.218933 366.222046,175.875793 371.188507,168.424698 
	C372.735077,166.104431 373.969452,163.538330 375.067810,160.965683 
	C376.804565,156.897766 377.906067,152.514725 379.983124,148.644348 
	C385.887085,137.643143 383.717896,128.891342 373.222137,121.871666 
	C368.836609,118.938560 364.558105,115.749962 360.691498,112.178871 
	C358.910828,110.534286 357.187378,107.665871 357.240692,105.394691 
	C357.496948,94.474815 350.722565,88.228043 343.222870,82.061928 
	C338.807190,78.431427 334.609070,74.408913 330.936279,70.038971 
	C327.440887,65.880104 324.729492,61.057594 321.719727,56.496292 
	C316.740570,48.950390 311.798676,41.379944 306.841217,33.820053 
	C296.425415,53.262695 284.485626,70.477341 262.474457,77.062462 
M347.749359,236.965240 
	C346.626404,236.012939 345.569824,234.352051 344.368225,234.239502 
	C340.574097,233.884109 336.725464,234.129196 332.898193,234.103210 
	C329.063965,234.077179 324.821289,233.569977 327.825439,239.767868 
	C328.164886,240.468185 327.575623,241.663437 327.316864,242.601562 
	C325.700012,248.464478 324.156036,254.350433 322.383728,260.166534 
	C321.169098,264.152496 321.007599,268.512146 316.841187,271.354675 
	C314.760803,272.774017 316.192780,274.609375 318.642975,274.641418 
	C323.800568,274.708832 328.960327,274.609161 334.117981,274.673645 
	C336.879761,274.708191 337.572021,273.445251 336.993317,270.922638 
	C334.824005,261.466278 338.948547,256.830627 349.677734,258.244965 
	C347.153748,262.782257 344.841949,266.906403 342.562744,271.048462 
	C341.398407,273.164520 341.722473,274.623566 344.458313,274.646545 
	C349.782898,274.691315 355.112305,274.763245 360.429077,274.553833 
	C361.325714,274.518494 363.047455,272.743561 362.906647,272.422821 
	C360.379211,266.666687 363.642822,261.642395 365.213806,256.675659 
	C367.284119,250.130264 366.913086,242.439133 372.941223,237.386368 
	C373.016632,237.323151 371.458252,234.310776 370.561066,234.253128 
	C365.589447,233.933701 360.585815,234.058670 355.594299,234.123596 
	C352.792755,234.160019 351.914856,235.306366 352.780823,238.272491 
	C355.026062,245.963135 351.213654,250.981018 343.533386,250.860596 
	C342.881805,250.850372 342.231232,250.775558 340.043945,250.625015 
	C342.681305,245.865311 344.975952,241.724091 347.749359,236.965240 
M119.315704,269.918182 
	C122.497810,264.618164 126.715569,259.665924 128.637436,253.942688 
	C132.182281,243.386276 127.968834,235.870163 118.828949,233.886963 
	C101.413132,230.108032 86.104164,242.592255 86.012749,260.648071 
	C85.974586,268.186157 89.043922,273.025085 95.336639,274.684143 
	C103.766510,276.906677 111.630859,275.642212 119.315704,269.918182 
M283.200043,234.129700 
	C282.520203,235.228806 280.995819,236.867508 281.297455,237.339569 
	C283.271362,240.429153 282.045898,243.211258 281.055420,246.100922 
	C277.902405,255.299942 277.756927,265.580841 270.828003,273.958588 
	C273.847900,274.634186 276.540588,274.641602 279.233246,274.632324 
	C282.682098,274.620483 286.681335,275.075684 283.289032,269.536285 
	C282.911316,268.919495 282.934113,267.858673 283.147247,267.110992 
	C284.558472,262.160645 286.072418,257.239563 287.816040,251.432693 
	C291.047424,258.232788 293.792084,264.153687 296.670990,270.008575 
	C298.213684,273.145966 300.386749,275.421204 304.388000,275.073273 
	C308.533112,274.712860 309.882141,271.693298 310.861450,268.468048 
	C312.388123,263.440155 313.334534,258.217438 315.117249,253.290970 
	C317.024750,248.019775 316.459534,241.659012 321.687897,237.709534 
	C322.175079,237.341522 321.738617,235.750809 321.731049,234.727798 
	C317.694916,234.778214 313.657684,234.800156 309.625610,234.955658 
	C309.403564,234.964218 308.880188,236.246078 309.076782,236.659607 
	C312.070526,242.956284 307.799591,248.103195 306.592560,254.712463 
	C304.698944,250.932434 303.300171,247.960419 301.747284,245.071243 
	C294.805817,232.156921 299.150421,234.322556 283.200043,234.129700 
M409.180969,273.052521 
	C413.394409,277.087952 416.308685,273.326172 419.401276,271.220154 
	C424.263184,275.217957 429.881805,275.653351 435.542938,274.818298 
	C443.871735,273.589752 448.451447,267.912537 448.042633,260.190063 
	C447.743317,254.535522 443.439545,252.169586 439.517731,249.418137 
	C436.812836,247.520447 434.189636,245.506271 431.299683,243.374329 
	C435.771515,239.993668 437.448242,240.295364 441.142365,244.299591 
	C448.030182,251.765610 449.167847,251.525314 452.205627,241.965866 
	C452.255341,241.809479 452.405762,241.665802 452.406158,241.515930 
	C452.412201,239.174973 452.401215,236.833954 452.394165,234.492950 
	C449.962433,235.043411 447.525360,235.572098 445.103912,236.164490 
	C444.668579,236.270981 444.297577,236.640320 445.133514,236.122971 
	C439.994019,235.241425 436.038696,234.108246 432.050079,233.975510 
	C424.247650,233.715805 419.470367,237.273926 417.566956,243.984131 
	C415.919861,249.790695 418.223145,254.590347 424.675018,258.829681 
	C426.602600,260.096222 428.685822,261.202362 430.358948,262.748627 
	C431.242950,263.565582 431.398132,265.171204 431.882385,266.420746 
	C430.384247,266.854218 428.660492,267.965332 427.441772,267.559570 
	C425.690399,266.976440 424.208496,265.391449 422.796722,264.040588 
	C421.615692,262.910522 420.829254,261.366425 419.642487,260.244324 
	C416.401184,257.179596 413.557434,257.723785 412.086121,261.814819 
	C410.860535,265.222443 410.041626,268.776398 409.180969,273.052521 
M170.132233,250.272369 
	C173.353394,240.583221 168.851883,234.194717 158.715347,234.120010 
	C153.397324,234.080811 148.076935,234.030045 142.761215,234.147400 
	C140.013123,234.208069 137.185181,234.343384 134.612244,235.146393 
	C134.164398,235.286148 135.460327,239.152115 134.839355,240.902802 
	C131.057755,251.564209 131.107315,263.628876 123.261444,272.866882 
	C123.550346,273.245544 123.835411,273.965393 124.147446,273.977264 
	C130.906326,274.234680 137.668289,274.453491 144.429245,274.441895 
	C144.670044,274.441467 145.178253,271.988495 145.072113,270.719513 
	C144.956055,269.331726 143.851212,267.974365 143.906464,266.633789 
	C144.125992,261.308441 146.904114,259.493439 152.299332,260.043701 
	C159.879227,260.816772 166.353607,258.510010 170.132233,250.272369 
M179.293961,274.584839 
	C184.444641,274.602417 189.595673,274.588745 194.745850,274.649261 
	C197.841537,274.685638 200.398102,274.597351 198.229294,270.267487 
	C197.670074,269.151062 198.050171,267.369476 198.427246,266.012482 
	C200.049988,260.172607 201.882263,254.391342 203.544083,248.561874 
	C205.773392,240.741714 203.317749,235.364075 196.997955,233.959747 
	C184.415329,231.163773 179.344513,236.665009 174.874847,245.242569 
	C170.293381,254.034668 169.070892,265.084167 159.070343,270.576996 
	C158.441391,270.922485 157.933762,272.353455 158.126602,273.077911 
	C158.305618,273.750488 159.466568,274.537781 160.250565,274.602417 
	C162.560654,274.792816 164.916748,274.830261 167.220566,274.593719 
	C170.444702,274.262756 176.948715,276.678406 172.401367,268.993256 
	C172.180756,268.620422 172.681015,267.793701 172.894363,267.195740 
	C174.682190,262.185120 176.303802,261.538879 183.660095,263.447479 
	C182.166245,265.801727 180.671524,267.865662 179.511902,270.103241 
	C178.896408,271.290863 178.862335,272.779846 179.293961,274.584839 
M406.092041,263.761475 
	C407.678070,258.552948 409.646545,253.421951 410.723328,248.110214 
	C411.517090,244.194550 412.648621,239.693665 408.867371,236.424530 
	C403.228302,231.549255 389.446838,231.850494 385.682434,239.447037 
	C382.467041,245.935654 378.975433,252.288345 375.807007,258.798981 
	C373.642670,263.246368 372.155945,268.068329 366.890045,270.116058 
	C366.082397,270.430115 365.724365,271.900360 365.158386,272.835876 
	C366.188660,273.436371 367.188080,274.480713 368.254974,274.554962 
	C371.567749,274.785522 374.932587,274.882721 378.218964,274.513367 
	C379.240967,274.398499 380.994537,272.481415 380.856934,271.645538 
	C379.475616,263.254395 381.414764,261.322266 390.823792,263.305603 
	C389.395782,265.744720 388.114807,267.922302 386.844849,270.106293 
	C386.227356,271.168304 385.630402,272.242218 385.024109,273.310730 
	C386.315430,273.752869 387.594360,274.527496 388.900360,274.576233 
	C393.221466,274.737488 397.552429,274.618286 401.879425,274.643097 
	C404.914062,274.660522 407.509674,274.714081 405.424133,270.240448 
	C404.732056,268.755951 405.732117,266.482605 406.092041,263.761475 
M250.983124,245.339615 
	C251.419846,243.915375 251.866425,242.494080 252.291565,241.066391 
	C254.077072,235.070541 253.366714,234.112213 247.119797,234.109375 
	C237.142105,234.104858 227.164398,234.108185 217.186707,234.108139 
	C209.371994,234.108093 208.000061,235.133484 207.060837,242.848541 
	C206.843918,244.630417 208.019257,246.581757 208.553909,248.455124 
	C210.474045,247.906479 212.572296,247.670502 214.257950,246.710251 
	C215.607269,245.941620 216.337952,244.160706 217.561371,243.074890 
	C218.612564,242.141953 219.972427,241.556778 222.051559,240.300919 
	C219.951233,247.842377 218.448242,254.222168 216.351730,260.400574 
	C215.079559,264.149658 212.963074,267.626465 211.085098,271.150574 
	C209.919586,273.337738 210.115982,274.618958 212.857819,274.640015 
	C217.513748,274.675751 222.171219,274.581604 226.826065,274.659607 
	C230.427475,274.719940 233.012085,274.317780 230.876053,269.628571 
	C230.352509,268.479248 230.778900,266.738708 231.143845,265.370056 
	C232.923035,258.697937 234.756851,252.037979 236.744400,245.425735 
	C237.212723,243.867722 238.350983,242.511093 239.181061,241.061829 
	C240.129211,242.259247 241.282684,243.347275 241.989349,244.673386 
	C244.794449,249.937546 246.341965,250.229645 250.983124,245.339615 
M62.315048,234.238419 
	C51.941971,238.513504 46.567783,246.286102 46.898487,257.664795 
	C47.008690,261.456635 47.581833,265.917236 49.666660,268.844910 
	C56.652088,278.654388 75.611816,276.741638 80.985931,265.943939 
	C81.624886,264.660156 81.205894,261.717865 80.243813,261.063263 
	C79.107971,260.290466 76.569824,260.666687 75.143181,261.455505 
	C73.200645,262.529541 71.948784,264.871796 69.995468,265.901154 
	C68.467735,266.706207 65.862648,267.085938 64.579590,266.291901 
	C63.231102,265.457397 61.921154,262.769775 62.275223,261.295685 
	C63.567520,255.915588 64.989113,250.417755 67.445747,245.506363 
	C70.101097,240.197662 73.980965,240.564377 76.856239,245.728683 
	C77.415421,246.733047 77.819252,247.841827 78.484108,248.766251 
	C81.003563,252.269409 84.305069,251.994995 85.998238,248.085800 
	C87.045219,245.668503 88.033203,243.179413 88.620186,240.624359 
	C89.056122,238.726776 88.805084,236.671356 88.860039,234.686249 
	C86.650368,234.796219 84.409981,234.725800 82.244324,235.094406 
	C81.205009,235.271301 80.306969,236.278259 79.344948,236.909302 
	C79.380661,236.427643 79.416374,235.945969 79.452080,235.464294 
	C74.017586,234.984756 68.583084,234.505234 62.315048,234.238419 
M270.507874,248.131744 
	C272.367310,243.921173 274.226715,239.710587 276.300476,235.014633 
	C275.290283,234.784698 273.813171,234.206253 272.318024,234.155014 
	C268.333710,234.018448 264.339111,234.198196 260.353424,234.083588 
	C256.407623,233.970139 253.970016,234.627762 256.220337,239.429520 
	C256.745728,240.550598 256.160248,242.326752 255.777054,243.716339 
	C253.901642,250.517624 252.075806,257.340240 249.894623,264.045380 
	C249.139694,266.366150 247.352951,268.338501 246.153397,270.533356 
	C245.641113,271.470673 245.129852,272.595306 245.213898,273.584137 
	C245.249863,274.007172 246.799515,274.582123 247.674072,274.605133 
	C251.660110,274.710052 255.652618,274.562866 259.639008,274.660950 
	C263.682892,274.760406 268.007538,275.380066 265.098541,268.876617 
	C264.772736,268.148285 265.384003,266.969666 265.635071,266.019531 
	C267.144775,260.305908 268.676178,254.598007 270.507874,248.131744 
z"/>
<path fill="#FE7F00" opacity="1.000000" stroke="none" 
	d="
M304.490692,222.946457 
	C304.233032,222.965286 303.975342,222.984116 303.023407,222.657959 
	C301.679352,222.209610 301.029602,222.016129 300.379761,222.015823 
	C265.848053,222.000259 231.316345,221.992172 196.784698,222.035553 
	C195.534348,222.037125 194.284653,222.561646 193.034653,222.842468 
	C192.852127,222.886581 192.669617,222.930710 192.203949,222.494385 
	C190.253952,202.903076 188.766647,183.773849 186.815170,164.692078 
	C186.198456,158.661636 184.791153,152.614517 182.947235,146.829529 
	C180.034637,137.691742 172.216263,131.921326 164.975769,133.198364 
	C147.720871,136.241730 130.474319,139.349258 113.281372,142.721390 
	C100.836525,145.162277 87.389534,138.410873 84.151566,127.458427 
	C81.946777,120.000702 77.699234,114.137215 71.271240,109.860100 
	C67.976295,107.667679 67.652855,105.022964 70.541328,102.634552 
	C74.349472,99.485710 78.372490,96.490051 82.654930,94.044594 
	C90.570320,89.524536 98.988052,85.853577 106.741524,81.088539 
	C115.766838,75.541862 122.335068,67.734161 124.675148,57.014603 
	C125.232750,54.460327 125.031860,51.569519 126.173576,49.343086 
	C131.313400,39.320065 138.121811,30.562080 147.385803,23.954834 
	C168.733307,8.729409 191.298889,9.991546 214.378769,19.216433 
	C215.515854,19.670918 216.398605,20.815498 217.336746,21.705206 
	C223.905396,27.934822 231.399811,32.032272 240.664642,32.693550 
	C242.950409,32.856701 245.543732,33.885258 247.307251,35.346699 
	C258.271271,44.432655 263.068542,57.067860 267.060760,69.828964 
	C262.732086,73.375069 258.778961,76.613533 254.899323,79.887589 
	C254.972809,79.923187 254.856186,79.808868 254.535858,79.910583 
	C250.780807,83.654182 247.346100,87.296059 243.951660,90.965057 
	C243.991928,90.992172 243.936981,90.912125 243.630829,91.057449 
	C236.086487,101.640152 228.848297,112.077538 220.845367,123.617668 
	C217.685165,114.955994 214.093231,106.659492 211.653397,98.036995 
	C208.508804,86.923897 208.585114,75.443604 210.101105,63.629395 
	C211.474472,57.638237 212.698242,52.015480 213.922012,46.392723 
	C205.588287,54.188591 201.890259,63.751904 201.469147,74.723747 
	C200.727890,94.037590 207.044632,111.470200 215.349655,128.462402 
	C216.320709,130.449203 216.253860,133.440781 215.593704,135.644730 
	C211.947418,147.817993 207.967773,159.891403 203.982651,172.391418 
	C201.716888,184.004059 200.126129,195.232361 203.137894,206.934357 
	C206.676559,204.201523 208.303696,201.275467 208.238800,196.977112 
	C208.169495,192.387299 208.854935,187.744873 209.606171,183.190613 
	C214.103043,155.928787 224.842621,131.051880 239.398483,107.809944 
	C248.000137,94.075348 257.784576,81.415138 273.932068,75.302605 
	C278.407959,73.608299 282.650970,70.180893 285.887817,66.555061 
	C293.556122,57.965256 300.556946,48.779598 307.851562,39.805290 
	C311.492157,45.378696 315.590088,51.756325 319.793427,58.063721 
	C326.775543,68.540932 333.146057,79.376801 344.448700,86.325974 
	C350.423340,89.999359 354.203888,95.885201 355.173584,103.506538 
	C355.679291,107.481178 357.419434,112.019951 360.130768,114.827667 
	C364.447144,119.297523 370.068268,122.497742 375.087494,126.301071 
	C380.818695,130.643921 382.474121,136.961487 379.757904,143.510437 
	C377.735596,148.386353 376.080048,153.440750 373.713623,158.139938 
	C371.503571,162.528656 368.719727,166.656418 365.913391,170.708557 
	C363.435791,174.285965 359.656799,174.758163 355.646179,174.053268 
	C352.393585,173.481598 349.171143,172.617294 345.895599,172.318558 
	C332.874390,171.130936 320.503418,172.428558 311.341156,183.264236 
	C306.250732,189.284363 301.875397,195.882385 302.334564,204.222733 
	C302.679291,210.484558 303.745605,216.706665 304.490692,222.946457 
z"/>
<path fill="#070707" opacity="1.000000" stroke="none" 
	d="
M347.509979,237.274048 
	C344.975952,241.724091 342.681305,245.865311 340.043945,250.625015 
	C342.231232,250.775558 342.881805,250.850372 343.533386,250.860596 
	C351.213654,250.981018 355.026062,245.963135 352.780823,238.272491 
	C351.914856,235.306366 352.792755,234.160019 355.594299,234.123596 
	C360.585815,234.058670 365.589447,233.933701 370.561066,234.253128 
	C371.458252,234.310776 373.016632,237.323151 372.941223,237.386368 
	C366.913086,242.439133 367.284119,250.130264 365.213806,256.675659 
	C363.642822,261.642395 360.379211,266.666687 362.906647,272.422821 
	C363.047455,272.743561 361.325714,274.518494 360.429077,274.553833 
	C355.112305,274.763245 349.782898,274.691315 344.458313,274.646545 
	C341.722473,274.623566 341.398407,273.164520 342.562744,271.048462 
	C344.841949,266.906403 347.153748,262.782257 349.677734,258.244965 
	C338.948547,256.830627 334.824005,261.466278 336.993317,270.922638 
	C337.572021,273.445251 336.879761,274.708191 334.117981,274.673645 
	C328.960327,274.609161 323.800568,274.708832 318.642975,274.641418 
	C316.192780,274.609375 314.760803,272.774017 316.841187,271.354675 
	C321.007599,268.512146 321.169098,264.152496 322.383728,260.166534 
	C324.156036,254.350433 325.700012,248.464478 327.316864,242.601562 
	C327.575623,241.663437 328.164886,240.468185 327.825439,239.767868 
	C324.821289,233.569977 329.063965,234.077179 332.898193,234.103210 
	C336.725464,234.129196 340.574097,233.884109 344.368225,234.239502 
	C345.569824,234.352051 346.626404,236.012939 347.509979,237.274048 
z"/>
<path fill="#16100B" opacity="1.000000" stroke="none" 
	d="
M304.860016,223.003922 
	C303.745605,216.706665 302.679291,210.484558 302.334564,204.222733 
	C301.875397,195.882385 306.250732,189.284363 311.341156,183.264236 
	C320.503418,172.428558 332.874390,171.130936 345.895599,172.318558 
	C349.171143,172.617294 352.393585,173.481598 355.646179,174.053268 
	C359.656799,174.758163 363.435791,174.285965 365.913391,170.708557 
	C368.719727,166.656418 371.503571,162.528656 373.713623,158.139938 
	C376.080048,153.440750 377.735596,148.386353 379.757904,143.510437 
	C382.474121,136.961487 380.818695,130.643921 375.087494,126.301071 
	C370.068268,122.497742 364.447144,119.297523 360.130768,114.827667 
	C357.419434,112.019951 355.679291,107.481178 355.173584,103.506538 
	C354.203888,95.885201 350.423340,89.999359 344.448700,86.325974 
	C333.146057,79.376801 326.775543,68.540932 319.793427,58.063721 
	C315.590088,51.756325 311.492157,45.378696 307.851562,39.805290 
	C300.556946,48.779598 293.556122,57.965256 285.887817,66.555061 
	C282.650970,70.180893 278.407959,73.608299 273.932068,75.302605 
	C257.784576,81.415138 248.000137,94.075348 239.398483,107.809944 
	C224.842621,131.051880 214.103043,155.928787 209.606171,183.190613 
	C208.854935,187.744873 208.169495,192.387299 208.238800,196.977112 
	C208.303696,201.275467 206.676559,204.201523 203.137894,206.934357 
	C200.126129,195.232361 201.716888,184.004059 204.285309,172.391052 
	C205.111282,171.999039 205.514862,171.999786 205.934921,172.420105 
	C205.011429,182.339645 204.071442,191.839645 203.131470,201.339630 
	C203.867783,201.424728 204.604095,201.509827 205.340424,201.594925 
	C205.566956,200.138107 205.876129,198.688538 206.004578,197.223114 
	C206.393021,192.791931 206.371063,188.296738 207.113586,183.929276 
	C211.153214,160.168610 219.401276,137.866318 231.294724,116.955231 
	C235.446564,109.655457 240.344803,102.779015 244.937912,95.732544 
	C245.753952,94.480621 247.159851,93.209259 244.096069,92.897720 
	C244.015793,91.971695 243.976379,91.441910 243.936981,90.912125 
	C243.936981,90.912125 243.991928,90.992172 244.342804,90.983093 
	C249.435059,88.484596 252.588120,84.549484 254.856186,79.808868 
	C254.856186,79.808868 254.972809,79.923187 255.292358,79.933220 
	C257.104736,79.617348 258.597534,79.291443 260.442444,78.966629 
	C261.383698,78.653725 261.972839,78.339745 262.613525,78.017403 
	C262.665070,78.009048 262.805756,78.018646 262.805756,78.018646 
	C284.485626,70.477341 296.425415,53.262695 306.841217,33.820053 
	C311.798676,41.379944 316.740570,48.950390 321.719727,56.496292 
	C324.729492,61.057594 327.440887,65.880104 330.936279,70.038971 
	C334.609070,74.408913 338.807190,78.431427 343.222870,82.061928 
	C350.722565,88.228043 357.496948,94.474815 357.240692,105.394691 
	C357.187378,107.665871 358.910828,110.534286 360.691498,112.178871 
	C364.558105,115.749962 368.836609,118.938560 373.222137,121.871666 
	C383.717896,128.891342 385.887085,137.643143 379.983124,148.644348 
	C377.906067,152.514725 376.804565,156.897766 375.067810,160.965683 
	C373.969452,163.538330 372.735077,166.104431 371.188507,168.424698 
	C366.222046,175.875793 361.220520,177.218933 352.429230,176.002838 
	C344.726379,174.937271 336.689880,174.398483 329.025635,175.381134 
	C317.516846,176.856705 305.166992,190.496323 304.604980,201.743698 
	C304.305145,207.743912 305.798096,213.824570 306.310547,219.883408 
	C306.396942,220.904938 305.611786,222.000183 304.860016,223.003922 
z"/>
<path fill="#040404" opacity="1.000000" stroke="none" 
	d="
M118.970078,270.044678 
	C111.630859,275.642212 103.766510,276.906677 95.336639,274.684143 
	C89.043922,273.025085 85.974586,268.186157 86.012749,260.648071 
	C86.104164,242.592255 101.413132,230.108032 118.828949,233.886963 
	C127.968834,235.870163 132.182281,243.386276 128.637436,253.942688 
	C126.715569,259.665924 122.497810,264.618164 118.970078,270.044678 
M107.987885,265.417786 
	C111.130867,257.346008 114.624176,249.350159 113.842125,240.388611 
	C109.794754,239.281631 108.044922,241.705521 107.108841,244.368576 
	C104.879822,250.709885 102.870079,257.145538 101.196388,263.652283 
	C100.792274,265.223358 102.037216,267.218597 102.523819,269.018799 
	C104.189751,268.029053 105.855682,267.039337 107.987885,265.417786 
z"/>
<path fill="#15100A" opacity="1.000000" stroke="none" 
	d="
M262.640106,77.540558 
	C262.805756,78.018646 262.665070,78.009048 262.642334,77.632019 
	C261.776520,77.825180 260.933441,78.395370 260.090332,78.965546 
	C258.597534,79.291443 257.104736,79.617348 255.218872,79.897629 
	C258.778961,76.613533 262.732086,73.375069 267.060760,69.828964 
	C263.068542,57.067860 258.271271,44.432655 247.307251,35.346699 
	C245.543732,33.885258 242.950409,32.856701 240.664642,32.693550 
	C231.399811,32.032272 223.905396,27.934822 217.336746,21.705206 
	C216.398605,20.815498 215.515854,19.670918 214.378769,19.216433 
	C191.298889,9.991546 168.733307,8.729409 147.385803,23.954834 
	C138.121811,30.562080 131.313400,39.320065 126.173576,49.343086 
	C125.031860,51.569519 125.232750,54.460327 124.675148,57.014603 
	C122.335068,67.734161 115.766838,75.541862 106.741524,81.088539 
	C98.988052,85.853577 90.570320,89.524536 82.654930,94.044594 
	C78.372490,96.490051 74.349472,99.485710 70.541328,102.634552 
	C67.652855,105.022964 67.976295,107.667679 71.271240,109.860100 
	C77.699234,114.137215 81.946777,120.000702 84.151566,127.458427 
	C87.389534,138.410873 100.836525,145.162277 113.281372,142.721390 
	C130.474319,139.349258 147.720871,136.241730 164.975769,133.198364 
	C172.216263,131.921326 180.034637,137.691742 182.947235,146.829529 
	C184.791153,152.614517 186.198456,158.661636 186.815170,164.692078 
	C188.766647,183.773849 190.253952,202.903076 191.928177,222.437164 
	C191.219177,222.152100 189.962784,221.508560 189.868942,220.725693 
	C188.791534,211.736053 187.872238,202.727173 186.947250,193.719681 
	C185.584839,180.452469 184.636703,167.127014 182.743179,153.936752 
	C181.804550,147.398300 179.248901,140.853928 172.860306,137.448135 
	C170.384552,136.128296 166.928391,135.647385 164.129761,136.096985 
	C147.070312,138.837662 130.100189,142.132965 113.043877,144.894989 
	C98.384514,147.268860 85.402214,140.052261 81.396034,126.512741 
	C79.838860,121.250023 75.296738,116.053993 70.735893,112.704552 
	C65.115234,108.576782 64.700912,103.459488 70.218079,99.523857 
	C77.004677,94.682686 84.562019,90.857033 92.006187,87.019073 
	C101.322807,82.215736 110.842476,77.485626 116.663528,68.485275 
	C119.752495,63.709202 120.904282,57.674072 122.880394,52.189236 
	C123.316620,50.978474 123.305984,49.565998 123.897415,48.457947 
	C134.040833,29.454365 148.490738,15.507524 170.280670,11.351665 
	C185.868332,8.378722 201.107895,11.004662 215.661484,17.188601 
	C217.694839,18.052586 219.339478,19.955235 221.001617,21.546736 
	C226.867111,27.162996 233.684235,30.122061 241.929291,30.273102 
	C244.249222,30.315599 246.866623,31.899078 248.779221,33.468430 
	C259.902222,42.595215 265.046021,55.262856 269.010864,68.568390 
	C269.292328,69.512901 269.528534,70.470894 269.723511,71.192368 
	C267.284363,73.167534 264.879395,75.114998 262.640106,77.540558 
z"/>
<path fill="#090909" opacity="1.000000" stroke="none" 
	d="
M37.873260,247.991669 
	C36.916649,251.978058 35.960033,255.964447 34.921284,260.293121 
	C37.188419,261.276520 42.053631,259.416718 40.986214,265.070404 
	C39.553879,272.656921 37.769615,274.644989 31.677912,274.643585 
	C21.890558,274.641327 12.103205,274.642975 1.848071,274.642975 
	C2.069088,273.155914 1.853706,271.782532 2.440989,271.082672 
	C9.700254,262.431732 9.237574,251.082489 12.915270,241.191467 
	C13.613791,239.312820 12.300826,235.290329 12.961868,235.042084 
	C15.452304,234.106812 18.372648,234.171875 21.135618,234.135284 
	C27.953913,234.044998 34.774319,234.081100 41.593658,234.113220 
	C47.284931,234.140030 48.539902,235.828186 47.101280,241.411148 
	C46.774460,242.679443 46.382828,243.930984 46.052490,245.198425 
	C45.136742,248.712021 42.973881,249.481873 39.370705,247.763855 
	C38.672848,247.262558 38.406353,247.067627 38.120811,246.468353 
	C37.808220,241.838943 35.672951,239.396729 31.408205,240.757111 
	C26.464869,242.333939 28.332335,247.177109 27.110672,249.725830 
	C30.728125,248.958496 34.152042,248.232208 37.579689,247.670578 
	C37.583420,247.835220 37.873260,247.991669 37.873260,247.991669 
M31.105213,264.629669 
	C32.354752,263.838684 33.604286,263.047699 34.087296,262.741913 
	C30.780731,260.204803 28.380461,258.363098 25.271997,255.977997 
	C24.052547,259.972473 22.885031,263.796844 21.717514,267.621246 
	C22.112566,268.083649 22.507618,268.546051 22.902670,269.008453 
	C25.453938,267.729950 28.005203,266.451447 31.105213,264.629669 
z"/>
<path fill="#060606" opacity="1.000000" stroke="none" 
	d="
M283.636139,234.120422 
	C299.150421,234.322556 294.805817,232.156921 301.747284,245.071243 
	C303.300171,247.960419 304.698944,250.932434 306.592560,254.712463 
	C307.799591,248.103195 312.070526,242.956284 309.076782,236.659607 
	C308.880188,236.246078 309.403564,234.964218 309.625610,234.955658 
	C313.657684,234.800156 317.694916,234.778214 321.731049,234.727798 
	C321.738617,235.750809 322.175079,237.341522 321.687897,237.709534 
	C316.459534,241.659012 317.024750,248.019775 315.117249,253.290970 
	C313.334534,258.217438 312.388123,263.440155 310.861450,268.468048 
	C309.882141,271.693298 308.533112,274.712860 304.388000,275.073273 
	C300.386749,275.421204 298.213684,273.145966 296.670990,270.008575 
	C293.792084,264.153687 291.047424,258.232788 287.816040,251.432693 
	C286.072418,257.239563 284.558472,262.160645 283.147247,267.110992 
	C282.934113,267.858673 282.911316,268.919495 283.289032,269.536285 
	C286.681335,275.075684 282.682098,274.620483 279.233246,274.632324 
	C276.540588,274.641602 273.847900,274.634186 270.828003,273.958588 
	C277.756927,265.580841 277.902405,255.299942 281.055420,246.100922 
	C282.045898,243.211258 283.271362,240.429153 281.297455,237.339569 
	C280.995819,236.867508 282.520203,235.228806 283.636139,234.120422 
z"/>
<path fill="#050505" opacity="1.000000" stroke="none" 
	d="
M409.111816,272.659027 
	C410.041626,268.776398 410.860535,265.222443 412.086121,261.814819 
	C413.557434,257.723785 416.401184,257.179596 419.642487,260.244324 
	C420.829254,261.366425 421.615692,262.910522 422.796722,264.040588 
	C424.208496,265.391449 425.690399,266.976440 427.441772,267.559570 
	C428.660492,267.965332 430.384247,266.854218 431.882385,266.420746 
	C431.398132,265.171204 431.242950,263.565582 430.358948,262.748627 
	C428.685822,261.202362 426.602600,260.096222 424.675018,258.829681 
	C418.223145,254.590347 415.919861,249.790695 417.566956,243.984131 
	C419.470367,237.273926 424.247650,233.715805 432.050079,233.975510 
	C436.038696,234.108246 439.994019,235.241425 445.133514,236.122971 
	C444.297577,236.640320 444.668579,236.270981 445.103912,236.164490 
	C447.525360,235.572098 449.962433,235.043411 452.394165,234.492950 
	C452.401215,236.833954 452.412201,239.174973 452.406158,241.515930 
	C452.405762,241.665802 452.255341,241.809479 452.205627,241.965866 
	C449.167847,251.525314 448.030182,251.765610 441.142365,244.299591 
	C437.448242,240.295364 435.771515,239.993668 431.299683,243.374329 
	C434.189636,245.506271 436.812836,247.520447 439.517731,249.418137 
	C443.439545,252.169586 447.743317,254.535522 448.042633,260.190063 
	C448.451447,267.912537 443.871735,273.589752 435.542938,274.818298 
	C429.881805,275.653351 424.263184,275.217957 419.401276,271.220154 
	C416.308685,273.326172 413.394409,277.087952 409.111816,272.659027 
z"/>
<path fill="#050505" opacity="1.000000" stroke="none" 
	d="
M170.053436,250.664124 
	C166.353607,258.510010 159.879227,260.816772 152.299332,260.043701 
	C146.904114,259.493439 144.125992,261.308441 143.906464,266.633789 
	C143.851212,267.974365 144.956055,269.331726 145.072113,270.719513 
	C145.178253,271.988495 144.670044,274.441467 144.429245,274.441895 
	C137.668289,274.453491 130.906326,274.234680 124.147446,273.977264 
	C123.835411,273.965393 123.550346,273.245544 123.261444,272.866882 
	C131.107315,263.628876 131.057755,251.564209 134.839355,240.902802 
	C135.460327,239.152115 134.164398,235.286148 134.612244,235.146393 
	C137.185181,234.343384 140.013123,234.208069 142.761215,234.147400 
	C148.076935,234.030045 153.397324,234.080811 158.715347,234.120010 
	C168.851883,234.194717 173.353394,240.583221 170.053436,250.664124 
M147.305771,254.022507 
	C152.673050,254.348602 156.109222,250.771652 156.007767,244.546768 
	C155.986618,243.249084 154.742722,241.971313 154.062332,240.684357 
	C152.814621,241.599014 150.968842,242.253738 150.436249,243.479187 
	C149.075897,246.609268 148.300873,249.993729 147.305771,254.022507 
z"/>
<path fill="#070707" opacity="1.000000" stroke="none" 
	d="
M178.929871,274.358826 
	C178.862335,272.779846 178.896408,271.290863 179.511902,270.103241 
	C180.671524,267.865662 182.166245,265.801727 183.660095,263.447479 
	C176.303802,261.538879 174.682190,262.185120 172.894363,267.195740 
	C172.681015,267.793701 172.180756,268.620422 172.401367,268.993256 
	C176.948715,276.678406 170.444702,274.262756 167.220566,274.593719 
	C164.916748,274.830261 162.560654,274.792816 160.250565,274.602417 
	C159.466568,274.537781 158.305618,273.750488 158.126602,273.077911 
	C157.933762,272.353455 158.441391,270.922485 159.070343,270.576996 
	C169.070892,265.084167 170.293381,254.034668 174.874847,245.242569 
	C179.344513,236.665009 184.415329,231.163773 196.997955,233.959747 
	C203.317749,235.364075 205.773392,240.741714 203.544083,248.561874 
	C201.882263,254.391342 200.049988,260.172607 198.427246,266.012482 
	C198.050171,267.369476 197.670074,269.151062 198.229294,270.267487 
	C200.398102,274.597351 197.841537,274.685638 194.745850,274.649261 
	C189.595673,274.588745 184.444641,274.602417 178.929871,274.358826 
M179.765533,255.841187 
	C184.087662,256.596161 186.501678,254.883026 187.031052,250.439041 
	C187.202042,249.003708 188.084396,247.638367 188.171555,246.212296 
	C188.245514,245.002121 187.642807,243.750595 187.339508,242.517365 
	C186.183548,243.057953 184.433380,243.295227 183.975510,244.192184 
	C182.092194,247.881500 180.601654,251.771347 179.765533,255.841187 
z"/>
<path fill="#070707" opacity="1.000000" stroke="none" 
	d="
M406.025269,264.165710 
	C405.732117,266.482605 404.732056,268.755951 405.424133,270.240448 
	C407.509674,274.714081 404.914062,274.660522 401.879425,274.643097 
	C397.552429,274.618286 393.221466,274.737488 388.900360,274.576233 
	C387.594360,274.527496 386.315430,273.752869 385.024109,273.310730 
	C385.630402,272.242218 386.227356,271.168304 386.844849,270.106293 
	C388.114807,267.922302 389.395782,265.744720 390.823792,263.305603 
	C381.414764,261.322266 379.475616,263.254395 380.856934,271.645538 
	C380.994537,272.481415 379.240967,274.398499 378.218964,274.513367 
	C374.932587,274.882721 371.567749,274.785522 368.254974,274.554962 
	C367.188080,274.480713 366.188660,273.436371 365.158386,272.835876 
	C365.724365,271.900360 366.082397,270.430115 366.890045,270.116058 
	C372.155945,268.068329 373.642670,263.246368 375.807007,258.798981 
	C378.975433,252.288345 382.467041,245.935654 385.682434,239.447037 
	C389.446838,231.850494 403.228302,231.549255 408.867371,236.424530 
	C412.648621,239.693665 411.517090,244.194550 410.723328,248.110214 
	C409.646545,253.421951 407.678070,258.552948 406.025269,264.165710 
M394.754089,249.221542 
	C394.892761,248.408432 395.173950,247.589096 395.138641,246.783600 
	C395.076782,245.371231 394.820862,243.967331 394.646271,242.559891 
	C393.363678,243.224030 391.533081,243.558746 390.899414,244.612946 
	C388.845764,248.029343 387.231171,251.709671 385.254608,255.675354 
	C388.298645,255.675354 390.421051,255.675354 392.548767,255.675354 
	C393.198578,253.661697 393.798279,251.803207 394.754089,249.221542 
z"/>
<path fill="#070707" opacity="1.000000" stroke="none" 
	d="
M250.923248,245.727829 
	C246.341965,250.229645 244.794449,249.937546 241.989349,244.673386 
	C241.282684,243.347275 240.129211,242.259247 239.181046,241.061829 
	C238.350983,242.511093 237.212723,243.867722 236.744400,245.425735 
	C234.756851,252.037979 232.923035,258.697937 231.143845,265.370056 
	C230.778900,266.738708 230.352509,268.479248 230.876053,269.628571 
	C233.012085,274.317780 230.427475,274.719940 226.826065,274.659607 
	C222.171219,274.581604 217.513748,274.675751 212.857819,274.640015 
	C210.115982,274.618958 209.919586,273.337738 211.085098,271.150574 
	C212.963074,267.626465 215.079559,264.149658 216.351730,260.400574 
	C218.448242,254.222168 219.951233,247.842377 222.051559,240.300919 
	C219.972427,241.556778 218.612564,242.141953 217.561371,243.074890 
	C216.337952,244.160706 215.607269,245.941620 214.257950,246.710251 
	C212.572296,247.670502 210.474045,247.906479 208.553909,248.455124 
	C208.019257,246.581757 206.843918,244.630417 207.060837,242.848541 
	C208.000061,235.133484 209.371994,234.108093 217.186707,234.108139 
	C227.164398,234.108185 237.142105,234.104858 247.119797,234.109375 
	C253.366714,234.112213 254.077072,235.070541 252.291565,241.066391 
	C251.866425,242.494080 251.419846,243.915375 250.923248,245.727829 
z"/>
<path fill="#040404" opacity="1.000000" stroke="none" 
	d="
M62.731819,234.132050 
	C68.583084,234.505234 74.017586,234.984756 79.452080,235.464294 
	C79.416374,235.945969 79.380661,236.427643 79.344948,236.909302 
	C80.306969,236.278259 81.205009,235.271301 82.244324,235.094406 
	C84.409981,234.725800 86.650368,234.796219 88.860046,234.686249 
	C88.805084,236.671356 89.056122,238.726776 88.620186,240.624359 
	C88.033203,243.179413 87.045219,245.668503 85.998238,248.085800 
	C84.305069,251.994995 81.003563,252.269409 78.484108,248.766251 
	C77.819252,247.841827 77.415421,246.733047 76.856239,245.728683 
	C73.980965,240.564377 70.101097,240.197662 67.445747,245.506363 
	C64.989113,250.417755 63.567520,255.915588 62.275223,261.295685 
	C61.921154,262.769775 63.231102,265.457397 64.579590,266.291901 
	C65.862648,267.085938 68.467735,266.706207 69.995468,265.901154 
	C71.948784,264.871796 73.200645,262.529541 75.143181,261.455505 
	C76.569824,260.666687 79.107971,260.290466 80.243813,261.063263 
	C81.205894,261.717865 81.624886,264.660156 80.985931,265.943939 
	C75.611816,276.741638 56.652088,278.654388 49.666660,268.844910 
	C47.581833,265.917236 47.008690,261.456635 46.898487,257.664795 
	C46.567783,246.286102 51.941971,238.513504 62.731819,234.132050 
z"/>
<path fill="#070707" opacity="1.000000" stroke="none" 
	d="
M270.354095,248.509979 
	C268.676178,254.598007 267.144775,260.305908 265.635071,266.019531 
	C265.384003,266.969666 264.772736,268.148285 265.098541,268.876617 
	C268.007538,275.380066 263.682892,274.760406 259.639008,274.660950 
	C255.652618,274.562866 251.660110,274.710052 247.674072,274.605133 
	C246.799515,274.582123 245.249863,274.007172 245.213898,273.584137 
	C245.129852,272.595306 245.641113,271.470673 246.153397,270.533356 
	C247.352951,268.338501 249.139694,266.366150 249.894623,264.045380 
	C252.075806,257.340240 253.901642,250.517624 255.777054,243.716339 
	C256.160248,242.326752 256.745728,240.550598 256.220337,239.429520 
	C253.970016,234.627762 256.407623,233.970139 260.353424,234.083588 
	C264.339111,234.198196 268.333710,234.018448 272.318024,234.155014 
	C273.813171,234.206253 275.290283,234.784698 276.300476,235.014633 
	C274.226715,239.710587 272.367310,243.921173 270.354095,248.509979 
z"/>
<path fill="#FF6E00" opacity="1.000000" stroke="none" 
	d="
M193.495819,222.916351 
	C194.284653,222.561646 195.534348,222.037125 196.784698,222.035553 
	C231.316345,221.992172 265.848053,222.000259 300.379761,222.015823 
	C301.029602,222.016129 301.679352,222.209610 302.644470,222.576569 
	C266.625519,222.890182 230.291260,222.940201 193.495819,222.916351 
z"/>
<path fill="#F5F5F5" opacity="1.000000" stroke="none" 
	d="
M38.139854,246.872681 
	C38.406353,247.067627 38.672848,247.262558 39.008289,247.713257 
	C38.876621,247.975372 38.676006,247.981750 38.174328,247.989899 
	C37.873260,247.991669 37.583420,247.835220 37.718861,247.510651 
	C37.854301,247.186081 38.139854,246.872681 38.139854,246.872681 
z"/>
<path fill="#18120D" opacity="1.000000" stroke="none" 
	d="
M205.918427,172.000534 
	C205.514862,171.999786 205.111282,171.999039 204.405060,171.998688 
	C207.967773,159.891403 211.947418,147.817993 215.593704,135.644730 
	C216.253860,133.440781 216.320709,130.449203 215.349655,128.462402 
	C207.044632,111.470200 200.727890,94.037590 201.469147,74.723747 
	C201.890259,63.751904 205.588287,54.188591 213.922012,46.392723 
	C212.698242,52.015480 211.474472,57.638237 209.799622,63.629341 
	C208.946594,63.999088 208.544632,64.000488 208.122070,63.596191 
	C208.463272,60.906570 208.825073,58.622646 209.186890,56.338722 
	C202.898438,66.975845 202.782059,78.479538 204.513184,90.009460 
	C206.613571,103.998909 211.985245,116.928108 218.612900,129.370743 
	C219.245560,130.558472 219.374985,132.418228 218.948227,133.703827 
	C214.700104,146.500977 210.285782,159.242950 205.918427,172.000534 
z"/>
<path fill="#15100A" opacity="1.000000" stroke="none" 
	d="
M208.142670,64.001892 
	C208.544632,64.000488 208.946594,63.999088 209.650040,63.997742 
	C208.585114,75.443604 208.508804,86.923897 211.653397,98.036995 
	C214.093231,106.659492 217.685165,114.955994 220.845367,123.617668 
	C228.848297,112.077538 236.086487,101.640152 243.630829,91.057449 
	C243.976379,91.441910 244.015793,91.971695 244.049545,93.232635 
	C236.608429,105.095909 229.172958,116.228020 221.677124,127.450516 
	C220.335907,125.174515 218.508575,122.427284 217.028625,119.504173 
	C208.147827,101.963348 205.193604,83.449028 208.142670,64.001892 
z"/>
<path fill="#15100A" opacity="1.000000" stroke="none" 
	d="
M254.535858,79.910583 
	C252.588120,84.549484 249.435059,88.484596 244.302551,90.955978 
	C247.346100,87.296059 250.780807,83.654182 254.535858,79.910583 
z"/>
<path fill="#EFEFEF" opacity="1.000000" stroke="none" 
	d="
M208.122070,63.596191 
	C205.193604,83.449028 208.147827,101.963348 217.028625,119.504173 
	C218.508575,122.427284 220.335907,125.174515 221.677124,127.450516 
	C229.172958,116.228020 236.608429,105.095909 244.090424,93.628876 
	C247.159851,93.209259 245.753952,94.480621 244.937912,95.732544 
	C240.344803,102.779015 235.446564,109.655457 231.294724,116.955231 
	C219.401276,137.866318 211.153214,160.168610 207.113586,183.929276 
	C206.371063,188.296738 206.393021,192.791931 206.004578,197.223114 
	C205.876129,198.688538 205.566956,200.138107 205.340424,201.594925 
	C204.604095,201.509827 203.867783,201.424728 203.131470,201.339630 
	C204.071442,191.839645 205.011429,182.339645 205.934906,172.420105 
	C210.285782,159.242950 214.700104,146.500977 218.948227,133.703827 
	C219.374985,132.418228 219.245560,130.558472 218.612900,129.370743 
	C211.985245,116.928108 206.613571,103.998909 204.513184,90.009460 
	C202.782059,78.479538 202.898438,66.975845 209.186890,56.338722 
	C208.825073,58.622646 208.463272,60.906570 208.122070,63.596191 
z"/>
<path fill="#FEFEFE" opacity="1.000000" stroke="none" 
	d="
M260.442444,78.966629 
	C260.933441,78.395370 261.776520,77.825180 262.590759,77.640381 
	C261.972839,78.339745 261.383698,78.653725 260.442444,78.966629 
z"/>
<path fill="#F7F7F7" opacity="1.000000" stroke="none" 
	d="
M107.754745,265.733704 
	C105.855682,267.039337 104.189751,268.029053 102.523819,269.018799 
	C102.037216,267.218597 100.792274,265.223358 101.196388,263.652283 
	C102.870079,257.145538 104.879822,250.709885 107.108841,244.368576 
	C108.044922,241.705521 109.794754,239.281631 113.842125,240.388611 
	C114.624176,249.350159 111.130867,257.346008 107.754745,265.733704 
z"/>
<path fill="#F6F6F6" opacity="1.000000" stroke="none" 
	d="
M30.830841,264.901306 
	C28.005203,266.451447 25.453938,267.729950 22.902670,269.008453 
	C22.507618,268.546051 22.112566,268.083649 21.717514,267.621246 
	C22.885031,263.796844 24.052547,259.972473 25.271997,255.977997 
	C28.380461,258.363098 30.780731,260.204803 34.087296,262.741913 
	C33.604286,263.047699 32.354752,263.838684 30.830841,264.901306 
z"/>
<path fill="#F5F5F5" opacity="1.000000" stroke="none" 
	d="
M37.715134,247.346008 
	C34.152042,248.232208 30.728125,248.958496 27.110672,249.725830 
	C28.332335,247.177109 26.464869,242.333939 31.408205,240.757111 
	C35.672951,239.396729 37.808220,241.838943 38.120811,246.468353 
	C38.139854,246.872681 37.854301,247.186081 37.715134,247.346008 
z"/>
<path fill="#F3F3F3" opacity="1.000000" stroke="none" 
	d="
M147.298737,253.649475 
	C148.300873,249.993729 149.075897,246.609268 150.436249,243.479187 
	C150.968842,242.253738 152.814621,241.599014 154.062332,240.684357 
	C154.742722,241.971313 155.986618,243.249084 156.007767,244.546768 
	C156.109222,250.771652 152.673050,254.348602 147.298737,253.649475 
z"/>
<path fill="#F3F3F3" opacity="1.000000" stroke="none" 
	d="
M179.366089,255.714325 
	C180.601654,251.771347 182.092194,247.881500 183.975510,244.192184 
	C184.433380,243.295227 186.183548,243.057953 187.339508,242.517365 
	C187.642807,243.750595 188.245514,245.002121 188.171555,246.212296 
	C188.084396,247.638367 187.202042,249.003708 187.031052,250.439041 
	C186.501678,254.883026 184.087662,256.596161 179.366089,255.714325 
z"/>
<path fill="#EEEEEE" opacity="1.000000" stroke="none" 
	d="
M394.576050,249.583130 
	C393.798279,251.803207 393.198578,253.661697 392.548767,255.675354 
	C390.421051,255.675354 388.298645,255.675354 385.254608,255.675354 
	C387.231171,251.709671 388.845764,248.029343 390.899414,244.612946 
	C391.533081,243.558746 393.363678,243.224030 394.646271,242.559891 
	C394.820862,243.967331 395.076782,245.371231 395.138641,246.783600 
	C395.173950,247.589096 394.892761,248.408432 394.576050,249.583130 
z"/>
</svg>